<?xml version="1.0" encoding="UTF-8"?>
<svg width="163px" height="211px" viewBox="0 0 163 211" version="1.1" xmlns="http://www.w3.org/2000/svg" xmlns:xlink="http://www.w3.org/1999/xlink">
    <!-- Generator: Sketch 61.2 (89653) - https://sketch.com -->
    <title>Group 3</title>
    <desc>Created with Sketch.</desc>
    <g id="Page-1" stroke="none" stroke-width="1" fill="none" fill-rule="evenodd">
        <g id="Group-3" transform="translate(-74.000000, -49.000000)">
            <rect id="Rectangle" x="0" y="0" width="309" height="309" rx="37.5"></rect>
            <path d="M155.5,49 C200.511207,49 237,85.4887929 237,130.5 C237,175.511207 200.511207,212 155.5,212 C148.419774,212 141.550419,211.097157 135.00078,209.400317 C130.00026,207.466772 126.166667,205.666667 123.5,204 C119.5,201.5 118,192.5 120.5,188 C123,183.5 128.801252,179.579156 135,182 C141.198748,184.420844 147.944027,186 155,186 C185.375661,186 210,161.375661 210,131 C210,100.624339 185.375661,76 155,76 C124.624339,76 100,100.624339 100,131 C100,131.669814 100.011973,132.336831 100.035718,133.000849 L100,133 L100,247 C100,254.179702 94.1797017,260 87,260 C79.8202983,260 74,254.179702 74,247 L74,130 C74,129.862459 74.002136,129.725417 74.0063766,129.588905 L74.0109187,129.152248 C74.7306281,84.7626659 110.938905,49 155.5,49 Z" id="Path" fill="#8a2cb9"></path>
            <path d="M155,91 C173.48818,91 189.11822,103.237149 194.232318,120.053642 C194.624581,121.343507 194.5,122.5 194,123 C193.5,123.5 192.344787,124.000623 191.081696,124.000631 C188.285502,124.000649 186.059559,124.000663 184.403869,124.000673 C182.759885,124.000683 180.506647,124.000698 177.644156,124.000715 C177.133405,124.000719 175.950524,124.046097 175,123.5 C174.09039,122.977409 173.406212,121.871605 173.176699,121.47605 C169.542303,115.212346 162.763075,111 155,111 C143.40202,111 134,120.40202 134,132 C134,143.59798 143.40202,153 155,153 C162.118415,153 168.4096,149.458208 172.207456,144.040722 C172.878896,143.082941 172.521228,142.999295 174,142 C175.478772,141.000705 176.346064,141.000749 177.529711,141.000772 C180.730921,141.000832 184.160507,140.99989 190,141 C191.245968,141.000023 192.509076,141.009076 193.5,142 C194.490924,142.990924 194.31465,143.980629 194,145 C188.835017,161.73299 173.428733,173 155,173 C132.356325,173 114,154.643675 114,132 C114,109.356325 132.356325,91 155,91 Z" id="Path" fill="#8a2cb9"></path>
        </g>
    </g>
</svg>